<svg width="896" height="176" viewBox="0 0 896 176" fill="none" xmlns="http://www.w3.org/2000/svg">
<g clip-path="url(#clip0_10020_1525)">
<path d="M390 87H300V89H390V87Z" fill="#F1F1F1"></path>
<path d="M302 39H29V41H302V39Z" fill="#F1F1F1"></path>
<path d="M302 135H29V137H302V135Z" fill="#F1F1F1"></path>
<path d="M300 39V137H302V39H300Z" fill="#F1F1F1"></path>
<path d="M271 34.3516L269.586 35.7658L275.243 41.4227L276.657 40.0085L271 34.3516Z" fill="#F1F1F1"></path>
<path d="M275.243 38.5938L269.586 44.2505L271.001 45.6647L276.657 40.0079L275.243 38.5938Z" fill="#F1F1F1"></path>
<path d="M168.656 34.3516L167.242 35.7658L172.899 41.4227L174.313 40.0085L168.656 34.3516Z" fill="#F1F1F1"></path>
<path d="M172.898 38.5938L167.242 44.2505L168.656 45.6647L174.313 40.0079L172.898 38.5938Z" fill="#F1F1F1"></path>
<path d="M72.6564 34.3516L71.2422 35.7658L76.8991 41.4227L78.3133 40.0085L72.6564 34.3516Z" fill="#F1F1F1"></path>
<path d="M76.899 38.5938L71.2422 44.2505L72.6564 45.6647L78.3133 40.0079L76.899 38.5938Z" fill="#F1F1F1"></path>
<path d="M341 82.5859L339.586 84.0001L345.243 89.6569L346.657 88.2427L341 82.5859Z" fill="#F1F1F1"></path>
<path d="M345.243 86.8281L339.586 92.485L341.001 93.8992L346.657 88.2423L345.243 86.8281Z" fill="#F1F1F1"></path>
<path d="M271 130.352L269.586 131.766L275.243 137.423L276.657 136.008L271 130.352Z" fill="#F1F1F1"></path>
<path d="M275.243 134.594L269.586 140.251L271.001 141.665L276.657 136.008L275.243 134.594Z" fill="#F1F1F1"></path>
<path d="M168.656 130.352L167.242 131.766L172.899 137.423L174.313 136.008L168.656 130.352Z" fill="#F1F1F1"></path>
<path d="M172.898 134.594L167.242 140.251L168.656 141.665L174.313 136.008L172.898 134.594Z" fill="#F1F1F1"></path>
<path d="M72.6565 130.352L71.2422 131.766L76.8991 137.423L78.3133 136.008L72.6565 130.352Z" fill="#F1F1F1"></path>
<path d="M76.899 134.594L71.2422 140.251L72.6564 141.665L78.3133 136.008L76.899 134.594Z" fill="#F1F1F1"></path>
<path d="M506 87H596V89H506V87Z" fill="#F1F1F1"></path>
<path d="M594 39H867V41H594V39Z" fill="#F1F1F1"></path>
<path d="M594 135H867V137H594V135Z" fill="#F1F1F1"></path>
<path d="M596 39V137H594V39H596Z" fill="#F1F1F1"></path>
<path d="M625.001 34.3516L626.415 35.7658L620.758 41.4227L619.344 40.0085L625.001 34.3516Z" fill="#F1F1F1"></path>
<path d="M620.758 38.5938L626.415 44.2505L625 45.6647L619.344 40.0079L620.758 38.5938Z" fill="#F1F1F1"></path>
<path d="M727.344 34.3516L728.758 35.7658L723.102 41.4227L721.688 40.0085L727.344 34.3516Z" fill="#F1F1F1"></path>
<path d="M723.102 38.5938L728.758 44.2505L727.344 45.6647L721.688 40.0079L723.102 38.5938Z" fill="#F1F1F1"></path>
<path d="M823.344 34.3516L824.758 35.7658L819.102 41.4227L817.688 40.0085L823.344 34.3516Z" fill="#F1F1F1"></path>
<path d="M819.102 38.5938L824.758 44.2505L823.344 45.6647L817.688 40.0079L819.102 38.5938Z" fill="#F1F1F1"></path>
<path d="M555.001 82.5859L556.415 84.0001L550.758 89.6569L549.344 88.2427L555.001 82.5859Z" fill="#F1F1F1"></path>
<path d="M550.758 86.8281L556.415 92.485L555 93.8992L549.344 88.2423L550.758 86.8281Z" fill="#F1F1F1"></path>
<path d="M625.001 130.352L626.415 131.766L620.758 137.423L619.344 136.008L625.001 130.352Z" fill="#F1F1F1"></path>
<path d="M620.758 134.594L626.415 140.251L625 141.665L619.344 136.008L620.758 134.594Z" fill="#F1F1F1"></path>
<path d="M727.344 130.352L728.758 131.766L723.102 137.423L721.688 136.008L727.344 130.352Z" fill="#F1F1F1"></path>
<path d="M723.102 134.594L728.758 140.251L727.344 141.665L721.688 136.008L723.102 134.594Z" fill="#F1F1F1"></path>
<path d="M823.337 130.352L824.751 131.766L819.094 137.423L817.68 136.008L823.337 130.352Z" fill="#F1F1F1"></path>
<path d="M819.095 134.594L824.752 140.251L823.337 141.665L817.68 136.008L819.095 134.594Z" fill="#F1F1F1"></path>
<rect y="15" width="50" height="50" rx="3" fill="#F1F1F1"></rect>
<mask id="mask0_10020_1525" style="mask-type:luminance" maskUnits="userSpaceOnUse" x="12" y="27" width="26" height="26">
<path d="M38 27H12V53H38V27Z" fill="white"></path>
</mask>
<g mask="url(#mask0_10020_1525)">
<mask id="mask1_10020_1525" style="mask-type:luminance" maskUnits="userSpaceOnUse" x="12" y="27" width="26" height="26">
<path d="M37.9519 27H12.5859V53H37.9519V27Z" fill="white"></path>
</mask>
<g mask="url(#mask1_10020_1525)">
<path fill-rule="evenodd" clip-rule="evenodd" d="M21.283 27.3281C19.8521 27.3281 18.4799 27.8965 17.4681 28.9083L12.5859 33.7904V36.0252C12.5859 37.604 13.2641 39.0244 14.3451 40.0111C13.2641 40.9976 12.5859 42.4181 12.5859 43.9969V46.2316L17.4681 51.1138C18.4799 52.1256 19.8521 52.694 21.283 52.694C22.8618 52.694 24.2823 52.0158 25.2689 50.9349C26.2555 52.0158 27.6759 52.694 29.2547 52.694C30.6856 52.694 32.0578 52.1256 33.0696 51.1138L37.9519 46.2316V43.9969C37.9519 42.4181 37.2736 40.9976 36.1927 40.0111C37.2736 39.0244 37.9519 37.604 37.9519 36.0252V33.7904L33.0696 28.9083C32.0578 27.8965 30.6856 27.3281 29.2547 27.3281C27.6759 27.3281 26.2555 28.0063 25.2689 29.0873C24.2823 28.0063 22.8618 27.3281 21.283 27.3281ZM28.9208 40.0111C28.86 39.9556 28.8003 39.8986 28.7418 39.8401L25.2689 36.3671L21.7959 39.8401C21.7374 39.8986 21.6778 39.9556 21.6169 40.0111C21.6778 40.0665 21.7374 40.1236 21.7959 40.182L25.2689 43.655L28.7418 40.182C28.8003 40.1236 28.86 40.0665 28.9208 40.0111ZM26.6781 46.2316V47.2989C26.6781 48.7219 27.8317 49.8756 29.2547 49.8756C29.9381 49.8756 30.5935 49.6041 31.0767 49.1209L35.1334 45.0642V43.9969C35.1334 42.5739 33.9797 41.4203 32.5567 41.4203C31.8734 41.4203 31.218 41.6917 30.7348 42.175L26.6781 46.2316ZM23.8597 46.2316L19.8029 42.175C19.3197 41.6917 18.6644 41.4203 17.981 41.4203C16.558 41.4203 15.4044 42.5739 15.4044 43.9969V45.0642L19.461 49.1209C19.9443 49.6041 20.5996 49.8756 21.283 49.8756C22.706 49.8756 23.8597 48.7219 23.8597 47.2989V46.2316ZM23.8597 32.7232V33.7904L19.8029 37.8472C19.3197 38.3304 18.6644 38.6019 17.981 38.6019C16.558 38.6019 15.4044 37.4482 15.4044 36.0252V34.9579L19.461 30.9012C19.9443 30.418 20.5996 30.1465 21.283 30.1465C22.706 30.1465 23.8597 31.3002 23.8597 32.7232ZM30.7348 37.8472L26.6781 33.7904V32.7232C26.6781 31.3002 27.8317 30.1465 29.2547 30.1465C29.9381 30.1465 30.5935 30.418 31.0767 30.9012L35.1334 34.9579V36.0252C35.1334 37.4482 33.9797 38.6019 32.5567 38.6019C31.8734 38.6019 31.218 38.3304 30.7348 37.8472Z" fill="#FF630B"></path>
</g>
</g>
<path d="M143 15H99C97.3431 15 96 16.3431 96 18V62C96 63.6569 97.3431 65 99 65H143C144.657 65 146 63.6569 146 62V18C146 16.3431 144.657 15 143 15Z" fill="#F1F1F1"></path>
<g clip-path="url(#clip1_10020_1525)">
<path fill-rule="evenodd" clip-rule="evenodd" d="M119.902 27.0156C113.04 27.3724 107.586 33.0484 107.586 39.9979C107.586 46.9476 113.04 52.6235 119.902 52.9803C118.056 49.4488 116.948 44.9269 116.948 39.9979C116.948 35.0689 118.056 30.5471 119.902 27.0156Z" fill="#0C11E8"></path>
<path fill-rule="evenodd" clip-rule="evenodd" d="M119.898 27.0179C120.126 27.006 120.356 27 120.587 27C127.646 27 133.392 32.6243 133.585 39.6355C133.357 39.6474 133.127 39.6534 132.896 39.6534C125.837 39.6534 120.092 34.0291 119.898 27.0179Z" fill="#0C11E8"></path>
<path fill-rule="evenodd" clip-rule="evenodd" d="M119.898 52.9793C120.126 52.9912 120.356 52.9972 120.587 52.9972C127.646 52.9972 133.392 47.3729 133.584 40.3617C133.357 40.3498 133.127 40.3438 132.896 40.3438C125.837 40.3438 120.092 45.9681 119.898 52.9793Z" fill="#0C11E8"></path>
</g>
<path d="M239 15H195C193.343 15 192 16.3431 192 18V62C192 63.6569 193.343 65 195 65H239C240.657 65 242 63.6569 242 62V18C242 16.3431 240.657 15 239 15Z" fill="#F1F1F1"></path>
<g clip-path="url(#clip2_10020_1525)">
<path d="M224.8 27H209.2C206.328 27 204 29.3281 204 32.2V47.8C204 50.6719 206.328 53 209.2 53H224.8C227.672 53 230 50.6719 230 47.8V32.2C230 29.3281 227.672 27 224.8 27Z" fill="url(#paint0_linear_10020_1525)"></path>
<path fill-rule="evenodd" clip-rule="evenodd" d="M217.211 32.5781C221.137 32.5781 224.32 35.7611 224.32 39.6875C224.32 43.6139 221.137 46.7969 217.211 46.7969C213.285 46.7969 210.102 43.6139 210.102 39.6875C210.102 35.7611 213.285 32.5781 217.211 32.5781ZM217.211 33.6719L217.211 36.9531C215.701 36.9531 214.477 38.1774 214.477 39.6875C214.477 41.1977 215.701 42.4219 217.211 42.4219V45.7029L217.349 45.7016C220.608 45.6282 223.227 42.9637 223.227 39.6875C223.227 36.3653 220.534 33.6721 217.211 33.6719ZM217.211 37.0215C218.683 37.0215 219.877 38.2151 219.877 39.6875C219.877 41.1264 218.737 42.2991 217.311 42.3517L217.211 42.3535V37.0215Z" fill="white"></path>
</g>
<path d="M47 111H3C1.34315 111 0 112.343 0 114V158C0 159.657 1.34315 161 3 161H47C48.6569 161 50 159.657 50 158V114C50 112.343 48.6569 111 47 111Z" fill="#F1F1F1"></path>
<g clip-path="url(#clip3_10020_1525)">
<path d="M32.8 123H17.2C14.3281 123 12 125.328 12 128.2V143.8C12 146.672 14.3281 149 17.2 149H32.8C35.6719 149 38 146.672 38 143.8V128.2C38 125.328 35.6719 123 32.8 123Z" fill="url(#paint1_linear_10020_1525)"></path>
<path d="M32.5695 135.832H30.9805L25.3472 134.929L19.7139 135.832H18.125C18.125 133.836 18.9375 132.031 20.2375 130.722C21.5465 129.422 23.3521 128.609 25.3472 128.609C27.3424 128.609 29.1479 129.422 30.4569 130.722C31.7569 132.031 32.5695 133.836 32.5695 135.832Z" fill="white"></path>
<path d="M32.5695 140.339H28.0555L25.3472 139.436L22.6389 140.339H18.125C18.125 138.632 18.7208 137.061 19.7139 135.825L25.3472 134.922L30.9805 135.825C31.9737 137.061 32.5695 138.632 32.5695 140.339Z" fill="white" fill-opacity="0.5"></path>
<path d="M28.0573 140.34C28.0573 141.839 26.8476 143.049 25.349 143.049C23.8504 143.049 22.6406 141.839 22.6406 140.34L25.349 139.438L28.0573 140.34Z" fill="white"></path>
<path d="M28.0573 140.341H22.6406C22.6406 138.843 23.8504 137.633 25.349 137.633C26.8476 137.633 28.0573 138.843 28.0573 140.341Z" fill="white"></path>
<path d="M30.9776 135.826H19.7109C19.8734 135.618 20.045 135.419 20.2346 135.23C21.5435 133.93 23.3491 133.117 25.3443 133.117C27.3394 133.117 29.145 133.93 30.4539 135.23C30.6435 135.419 30.8151 135.618 30.9776 135.826Z" fill="white"></path>
</g>
<path d="M143 111H99C97.3431 111 96 112.343 96 114V158C96 159.657 97.3431 161 99 161H143C144.657 161 146 159.657 146 158V114C146 112.343 144.657 111 143 111Z" fill="#F1F1F1"></path>
<mask id="mask2_10020_1525" style="mask-type:luminance" maskUnits="userSpaceOnUse" x="109" y="123" width="24" height="26">
<path d="M132.398 123H109.602V149H132.398V123Z" fill="white"></path>
</mask>
<g mask="url(#mask2_10020_1525)">
</g>
<g clip-path="url(#clip4_10020_1525)">
<path d="M128.731 123.18H113.47C110.66 123.18 108.383 125.457 108.383 128.267V143.528C108.383 146.337 110.66 148.614 113.47 148.614H128.731C131.54 148.614 133.818 146.337 133.818 143.528V128.267C133.818 125.457 131.54 123.18 128.731 123.18Z" fill="#146EF5"></path>
<path d="M124.823 141.668C126.678 141.63 128.169 140.113 128.169 138.247C128.169 137.34 127.809 136.47 127.168 135.829L121.476 130.133V133.673C121.476 134.265 121.711 134.833 122.13 135.252L123.463 136.586L123.467 136.59L125.703 138.827C125.737 138.862 125.756 138.909 125.756 138.958C125.756 139.007 125.736 139.054 125.701 139.089C125.667 139.123 125.62 139.143 125.571 139.143C125.522 139.143 125.475 139.124 125.44 139.09L124.669 138.319H117.54L116.769 139.09C116.752 139.108 116.731 139.123 116.709 139.133C116.686 139.143 116.661 139.149 116.636 139.149C116.611 139.15 116.587 139.145 116.563 139.136C116.54 139.126 116.519 139.112 116.502 139.095C116.484 139.077 116.47 139.056 116.461 139.033C116.451 139.01 116.447 138.985 116.447 138.96C116.448 138.935 116.453 138.91 116.463 138.888C116.473 138.865 116.488 138.844 116.506 138.827L118.742 136.59L118.746 136.586L120.079 135.252C120.497 134.833 120.732 134.265 120.732 133.673V130.133L115.04 135.829C114.399 136.47 114.039 137.34 114.039 138.247C114.039 140.113 115.531 141.63 117.386 141.668H124.823Z" fill="white"></path>
</g>
<rect x="192" y="111" width="50" height="50" rx="3" fill="#F1F1F1"></rect>
<g clip-path="url(#clip5_10020_1525)">
<path d="M224.165 123.18H210.035C206.913 123.18 204.383 125.71 204.383 128.832V142.962C204.383 146.084 206.913 148.614 210.035 148.614H224.165C227.287 148.614 229.818 146.084 229.818 142.962V128.832C229.818 125.71 227.287 123.18 224.165 123.18Z" fill="url(#paint2_linear_10020_1525)"></path>
<mask id="mask3_10020_1525" style="mask-type:luminance" maskUnits="userSpaceOnUse" x="208" y="127" width="18" height="18">
<path d="M225.574 127.422H208.617V144.378H225.574V127.422Z" fill="white"></path>
</mask>
<g mask="url(#mask3_10020_1525)">
<g filter="url(#filter0_d_10020_1525)">
<g filter="url(#filter1_d_10020_1525)">
<path fill-rule="evenodd" clip-rule="evenodd" d="M211.961 129.797C215.197 129.797 218.301 131.083 220.59 133.371C222.878 135.66 224.164 138.763 224.164 142H220.311C220.31 139.786 219.431 137.662 217.865 136.096C216.299 134.53 214.176 133.651 211.961 133.651L211.961 129.797Z" fill="white"></path>
<path fill-rule="evenodd" clip-rule="evenodd" d="M212.272 129.797C212.7 129.797 213.11 129.967 213.412 130.269C213.715 130.572 213.885 130.982 213.885 131.41V141.936H210.031V129.797H212.272Z" fill="white"></path>
<path fill-rule="evenodd" clip-rule="evenodd" d="M224.158 129.859L224.158 141.999H220.305L220.305 129.859H224.158Z" fill="white"></path>
</g>
</g>
</g>
</g>
<path d="M893 15H849C847.343 15 846 16.3431 846 18V62C846 63.6569 847.343 65 849 65H893C894.657 65 896 63.6569 896 62V18C896 16.3431 894.657 15 893 15Z" fill="#F1F1F1"></path>
<mask id="mask4_10020_1525" style="mask-type:luminance" maskUnits="userSpaceOnUse" x="863" y="32" width="16" height="16">
<path d="M878.481 32.6562H863.516V47.3519H878.481V32.6562Z" fill="white"></path>
</mask>
<g mask="url(#mask4_10020_1525)">
</g>
<g clip-path="url(#clip6_10020_1525)">
<path d="M878.165 27.1797H864.035C860.913 27.1797 858.383 29.7102 858.383 32.8319V46.9623C858.383 50.0839 860.913 52.6145 864.035 52.6145H878.165C881.287 52.6145 883.818 50.0839 883.818 46.9623V32.8319C883.818 29.7103 881.287 27.1797 878.165 27.1797Z" fill="url(#paint3_linear_10020_1525)"></path>
<path fill-rule="evenodd" clip-rule="evenodd" d="M871.104 32.8359H864.039V46.9664H871.104C875.006 46.9664 878.169 43.8031 878.169 39.9012C878.169 35.9992 875.006 32.8359 871.104 32.8359ZM871.767 44.9533C871.604 44.9053 871.438 44.712 871.402 44.5272C871.38 44.4065 871.407 44.3234 871.58 43.9888C872.279 42.6379 872.583 41.395 872.583 39.8882C872.583 38.431 872.314 37.2961 871.646 35.937C871.502 35.6459 871.386 35.3738 871.386 35.3342C871.386 35.1887 871.507 34.9787 871.638 34.8976C871.817 34.7854 872.119 34.8063 872.264 34.9414C872.321 34.9934 872.464 35.2302 872.585 35.467C873.064 36.4047 873.39 37.4334 873.553 38.5037C873.653 39.1669 873.673 40.4223 873.592 41.029C873.445 42.1473 873.149 43.1469 872.674 44.1239C872.387 44.7143 872.208 44.9576 872.058 44.9576C872.029 44.9576 871.979 44.9658 871.95 44.974C871.921 44.9825 871.838 44.9743 871.767 44.9533ZM869.821 43.9368C869.571 43.8642 869.39 43.5564 869.463 43.3278C869.479 43.2718 869.598 43.0161 869.725 42.7583C870.26 41.6672 870.483 40.4992 870.374 39.3518C870.285 38.4081 870.116 37.8138 869.69 36.9451C869.404 36.3609 869.39 36.2716 869.556 36.0345C869.714 35.8101 870.11 35.7748 870.316 35.9639C870.46 36.095 870.907 37.0282 871.08 37.5561C871.65 39.302 871.563 41.1788 870.832 42.8934C870.455 43.7726 870.191 44.045 869.821 43.9368ZM867.489 42.5091C867.527 42.673 867.66 42.8375 867.814 42.9058C867.883 42.9369 867.999 42.9539 868.072 42.9474C868.312 42.9163 868.43 42.7874 868.67 42.303C869.086 41.4572 869.236 40.8275 869.238 39.9108C869.24 39.0191 869.079 38.3231 868.688 37.5207C868.434 36.999 868.286 36.8555 868.002 36.8555C867.833 36.8555 867.781 36.8744 867.66 36.9886C867.417 37.2192 867.422 37.3356 867.712 37.9198C868.37 39.252 868.364 40.5636 867.689 41.9272C867.506 42.2968 867.466 42.4093 867.489 42.5091ZM865.94 41.9455C865.818 41.8958 865.678 41.7296 865.637 41.5838C865.591 41.4219 865.628 41.293 865.812 40.9917C866.049 40.6029 866.103 40.3954 866.103 39.8882C866.103 39.3809 866.049 39.1709 865.812 38.7843C865.73 38.6534 865.651 38.4955 865.633 38.433C865.556 38.1775 865.77 37.8635 866.057 37.8096C866.301 37.7638 866.467 37.8717 866.692 38.221C867.339 39.2314 867.339 40.578 866.692 41.5799C866.463 41.9311 866.209 42.0558 865.94 41.9455Z" fill="#EFFFFB"></path>
</g>
<path d="M797 15H753C751.343 15 750 16.3431 750 18V62C750 63.6569 751.343 65 753 65H797C798.657 65 800 63.6569 800 62V18C800 16.3431 798.657 15 797 15Z" fill="#F1F1F1"></path>
<g clip-path="url(#clip7_10020_1525)">
<path d="M762.383 39.8971C762.383 46.9207 768.077 52.6145 775.1 52.6145C782.124 52.6145 787.818 46.9207 787.818 39.8971C787.818 32.8735 782.124 27.1797 775.1 27.1797C768.077 27.1797 762.383 32.8735 762.383 39.8971Z" fill="url(#paint4_linear_10020_1525)"></path>
<path d="M775.102 31.9844L770.156 34.6213V39.8984L775.102 37.2608V31.9844Z" fill="#BABABA"></path>
<path d="M770.156 39.9011V45.1772L775.102 42.5378L770.157 39.9011H770.156ZM775.102 42.5378V47.8142L780.048 45.1763V39.9011L775.102 42.5378ZM775.102 37.2642L780.048 39.9011V34.625L775.102 37.2642Z" fill="#BABABA"></path>
<path d="M770.156 39.9023L775.101 42.5392V37.2656L770.156 39.9023Z" fill="#FAFAFA"></path>
<path d="M775.102 42.5395L780.047 39.9025L775.102 37.2656V42.5395Z" fill="black"></path>
</g>
<path d="M701 15H657C655.343 15 654 16.3431 654 18V62C654 63.6569 655.343 65 657 65H701C702.657 65 704 63.6569 704 62V18C704 16.3431 702.657 15 701 15Z" fill="#F1F1F1"></path>
<mask id="mask5_10020_1525" style="mask-type:luminance" maskUnits="userSpaceOnUse" x="666" y="27" width="26" height="26">
<path d="M692 27H666V53H692V27Z" fill="white"></path>
</mask>
<g mask="url(#mask5_10020_1525)">
</g>
<g clip-path="url(#clip8_10020_1525)">
<path fill-rule="evenodd" clip-rule="evenodd" d="M679.1 27.1797C686.124 27.1797 691.818 32.8735 691.818 39.8971C691.818 46.9206 686.124 52.6145 679.1 52.6145C672.077 52.6145 666.383 46.9206 666.383 39.8971C666.383 32.8735 672.077 27.1797 679.1 27.1797ZM679.101 29.1361L679.1 35.006C677.803 35.006 676.559 35.5213 675.642 36.4386C674.724 37.3558 674.209 38.5999 674.209 39.8971C674.209 41.1943 674.724 42.4383 675.642 43.3556C676.559 44.2729 677.803 44.7882 679.1 44.7882V50.6575L679.347 50.655C685.177 50.5237 689.861 45.7578 689.861 39.8971C689.861 33.9545 685.044 29.1366 679.101 29.1361ZM679.1 35.1281C680.351 35.1259 681.553 35.6153 682.446 36.4906C683.339 37.3659 683.853 38.5572 683.877 39.8078C683.9 41.0583 683.431 42.268 682.571 43.1762C681.711 44.0844 680.529 44.6183 679.279 44.663L679.1 44.6661V35.1281Z" fill="#AF2D2E"></path>
</g>
<path d="M893 111H849C847.343 111 846 112.343 846 114V158C846 159.657 847.343 161 849 161H893C894.657 161 896 159.657 896 158V114C896 112.343 894.657 111 893 111Z" fill="#F1F1F1"></path>
<g clip-path="url(#clip9_10020_1525)">
<path d="M884.459 136.977H879.803C875.735 136.977 872.438 140.274 872.438 144.342V148.999C878.858 148.523 883.983 143.397 884.459 136.977Z" fill="#775732"></path>
<path d="M870.483 148.999V144.342C870.483 140.274 867.185 136.977 863.118 136.977H858.461C858.937 143.397 864.063 148.523 870.483 148.999Z" fill="#775732"></path>
<path d="M884.459 135.022C883.983 128.602 878.858 123.476 872.438 123V127.657C872.438 131.725 875.735 135.022 879.803 135.022H884.459Z" fill="#775732"></path>
<path d="M870.483 123C864.063 123.476 858.937 128.602 858.461 135.022H863.118C867.185 135.022 870.483 131.725 870.483 127.657V123Z" fill="#775732"></path>
<path d="M867.273 136.003C869.081 135.1 870.553 133.627 871.456 131.82C872.359 133.627 873.832 135.1 875.639 136.003C873.832 136.906 872.359 138.379 871.456 140.186C870.553 138.379 869.081 136.906 867.273 136.003Z" fill="#CA9352"></path>
</g>
<rect x="750" y="111" width="50" height="50" rx="3" fill="#F1F1F1"></rect>
<g clip-path="url(#clip10_10020_1525)">
<path d="M782.165 123.18H768.035C764.913 123.18 762.383 125.71 762.383 128.832V142.962C762.383 146.084 764.913 148.614 768.035 148.614H782.165C785.287 148.614 787.818 146.084 787.818 142.962V128.832C787.818 125.71 785.287 123.18 782.165 123.18Z" fill="url(#paint5_linear_10020_1525)"></path>
<path d="M775.575 136.372H782.169C782.169 140.014 779.217 142.966 775.575 142.966V136.372ZM782.169 135.43H775.575C775.575 131.788 778.528 128.836 782.169 128.836V135.43ZM774.633 136.372V142.966C770.991 142.966 768.039 140.014 768.039 136.372H774.633ZM768.039 135.43V128.836C771.681 128.836 774.633 131.788 774.633 135.43H768.039Z" fill="#C4E7FF"></path>
</g>
<path d="M701 111H657C655.343 111 654 112.343 654 114V158C654 159.657 655.343 161 657 161H701C702.657 161 704 159.657 704 158V114C704 112.343 702.657 111 701 111Z" fill="#F1F1F1"></path>
<mask id="mask6_10020_1525" style="mask-type:luminance" maskUnits="userSpaceOnUse" x="664" y="123" width="30" height="26">
<path d="M693.064 123H664.938V149H693.064V123Z" fill="white"></path>
</mask>
<g mask="url(#mask6_10020_1525)">
</g>
<g clip-path="url(#clip11_10020_1525)">
<path d="M686.731 123.18H671.47C668.66 123.18 666.383 125.457 666.383 128.267V143.528C666.383 146.337 668.66 148.614 671.47 148.614H686.731C689.54 148.614 691.818 146.337 691.818 143.528V128.267C691.818 125.457 689.54 123.18 686.731 123.18Z" fill="#470137"></path>
<path d="M680.576 128.836H677.625V134.425L680.576 131.631V128.836Z" fill="#CF7DCA"></path>
<path d="M672.039 137.373V134.422H677.629L674.834 137.373L672.039 137.373Z" fill="#FF61F6"></path>
<path d="M686.168 134.422V137.373H680.578L683.373 134.422H686.168Z" fill="#CF7DCA"></path>
<path d="M680.592 134.414H677.617V142.967H680.592L680.592 134.414Z" fill="#FF61F6"></path>
</g>
<path d="M501 30H395C392.239 30 390 32.2386 390 35V141C390 143.761 392.239 146 395 146H501C503.761 146 506 143.761 506 141V35C506 32.2386 503.761 30 501 30Z" fill="#1B1B1B"></path>
<path d="M501 25H395C389.477 25 385 29.4772 385 35V141C385 146.523 389.477 151 395 151H501C506.523 151 511 146.523 511 141V35C511 29.4772 506.523 25 501 25Z" stroke="black" stroke-opacity="0.03" stroke-width="10"></path>
<path d="M501 30H395C392.239 30 390 32.2386 390 35V141C390 143.761 392.239 146 395 146H501C503.761 146 506 143.761 506 141V35C506 32.2386 503.761 30 501 30Z" fill="#1B1B1B"></path>
<path d="M501 20H395C386.716 20 380 26.7157 380 35V141C380 149.284 386.716 156 395 156H501C509.284 156 516 149.284 516 141V35C516 26.7157 509.284 20 501 20Z" stroke="black" stroke-opacity="0.03" stroke-width="20"></path>
<path d="M501 30H395C392.239 30 390 32.2386 390 35V141C390 143.761 392.239 146 395 146H501C503.761 146 506 143.761 506 141V35C506 32.2386 503.761 30 501 30Z" fill="#DFDFDF"></path>
<path d="M501 15H395C383.954 15 375 23.9543 375 35V141C375 152.046 383.954 161 395 161H501C512.046 161 521 152.046 521 141V35C521 23.9543 512.046 15 501 15Z" stroke="black" stroke-opacity="0.01" stroke-width="30"></path>
<path d="M493 38H403C400.239 38 398 40.2386 398 43V133C398 135.761 400.239 138 403 138H493C495.761 138 498 135.761 498 133V43C498 40.2386 495.761 38 493 38Z" fill="#FC432B"></path>
<path d="M466.5 85.2422V91.3257H471.499V85.2422H466.5Z" fill="#1B1B1B"></path>
<path d="M468.999 97.3984H466.5V100.432H468.999V97.3984Z" fill="#1B1B1B"></path>
<path d="M468.999 76.1406H466.5V79.1746H468.999V76.1406Z" fill="#1B1B1B"></path>
<path d="M466.499 94.3594H464V97.3948H466.499V94.3594Z" fill="#1B1B1B"></path>
<path d="M466.499 79.1719H464V82.2066H466.499V79.1719Z" fill="#1B1B1B"></path>
<path d="M463.999 91.3281H461.5V94.3635H463.999V91.3281Z" fill="#1B1B1B"></path>
<path d="M463.999 82.2109H461.5V85.2466H463.999V82.2109Z" fill="#1B1B1B"></path>
<path d="M459 112.572H461.499V97.3984H459V112.572Z" fill="#1B1B1B"></path>
<path d="M461.5 85.2422H456.5V91.3257H461.499L461.5 85.2422Z" fill="#1B1B1B"></path>
<path d="M461.499 64H459V79.1738H461.499V64Z" fill="#1B1B1B"></path>
<path d="M451.502 109.537H443.992V103.469H441.492V112.573H454.001V103.469H451.502V109.537Z" fill="#1B1B1B"></path>
<path d="M438.992 94.3594V97.3948H441.49V100.428H443.99V103.464H446.488V106.497H448.988V103.464H451.5V100.428H453.999V97.3948H456.498V94.3594H438.992Z" fill="#1B1B1B"></path>
<path d="M456.498 82.2084V79.1737H453.999V76.1397H451.5V73.1043H448.988V70.0703H446.488V73.1043H443.99V76.1397H441.49V79.1737H438.992V82.2084H456.498Z" fill="#1B1B1B"></path>
<path d="M443.992 67.035H451.502V73.1044H454.001V64H441.492V73.1044H443.992V67.035Z" fill="#1B1B1B"></path>
<path d="M438.992 85.2422H433.992V91.3257H438.992V85.2422Z" fill="#1B1B1B"></path>
<path d="M433.992 112.572H436.492V97.3984H433.992V112.572Z" fill="#1B1B1B"></path>
<path d="M436.492 64H433.992V79.1738H436.492V64Z" fill="#1B1B1B"></path>
<path d="M433.998 91.3281H431.5V94.3635H433.998V91.3281Z" fill="#1B1B1B"></path>
<path d="M433.998 82.2109H431.5V85.2466H433.998V82.2109Z" fill="#1B1B1B"></path>
<path d="M431.499 94.3594H429V97.3948H431.499V94.3594Z" fill="#1B1B1B"></path>
<path d="M431.499 79.1719H429V82.2066H431.499V79.1719Z" fill="#1B1B1B"></path>
<path d="M428.999 97.3984H426.5V100.432H428.999V97.3984Z" fill="#1B1B1B"></path>
<path d="M428.998 91.3257V85.2422H424V91.3257H428.998Z" fill="#1B1B1B"></path>
<path d="M428.999 76.1406H426.5V79.1746H428.999V76.1406Z" fill="#1B1B1B"></path>
<path d="M448.99 85.2422H446.49H443.992H441.492V88.2755V91.3258H443.992H446.49H448.99H451.502H454.001V88.2755V85.2422H451.502H448.99Z" fill="#F1F1F1"></path>
<path d="M413 59H415V53H413V59Z" fill="#1B1B1B"></path>
<path d="M413 55H419V53H413V55Z" fill="#1B1B1B"></path>
<path d="M483 59H481V53H483V59Z" fill="#1B1B1B"></path>
<path d="M483 55H477V53H483V55Z" fill="#1B1B1B"></path>
<path d="M413 117H415V123H413V117Z" fill="#1B1B1B"></path>
<path d="M413 121H419V123H413V121Z" fill="#1B1B1B"></path>
<path d="M483 117H481V123H483V117Z" fill="#1B1B1B"></path>
<path d="M483 121H477V123H483V121Z" fill="#1B1B1B"></path>
</g>
<defs>
<filter id="filter0_d_10020_1525" x="207.77" y="129.797" width="18.6546" height="16.7249" filterUnits="userSpaceOnUse" color-interpolation-filters="sRGB">
<feFlood flood-opacity="0" result="BackgroundImageFix"></feFlood>
<feColorMatrix in="SourceAlpha" type="matrix" values="0 0 0 0 0 0 0 0 0 0 0 0 0 0 0 0 0 0 127 0" result="hardAlpha"></feColorMatrix>
<feOffset dy="2.26087"></feOffset>
<feGaussianBlur stdDeviation="1.13043"></feGaussianBlur>
<feComposite in2="hardAlpha" operator="out"></feComposite>
<feColorMatrix type="matrix" values="0 0 0 0 0 0 0 0 0 0 0 0 0 0 0 0 0 0 0.25 0"></feColorMatrix>
<feBlend mode="normal" in2="BackgroundImageFix" result="effect1_dropShadow_10020_1525"></feBlend>
<feBlend mode="normal" in="SourceGraphic" in2="effect1_dropShadow_10020_1525" result="shape"></feBlend>
</filter>
<filter id="filter1_d_10020_1525" x="208.901" y="129.232" width="16.3937" height="14.464" filterUnits="userSpaceOnUse" color-interpolation-filters="sRGB">
<feFlood flood-opacity="0" result="BackgroundImageFix"></feFlood>
<feColorMatrix in="SourceAlpha" type="matrix" values="0 0 0 0 0 0 0 0 0 0 0 0 0 0 0 0 0 0 127 0" result="hardAlpha"></feColorMatrix>
<feOffset dy="0.565217"></feOffset>
<feGaussianBlur stdDeviation="0.565217"></feGaussianBlur>
<feComposite in2="hardAlpha" operator="out"></feComposite>
<feColorMatrix type="matrix" values="0 0 0 0 0 0 0 0 0 0 0 0 0 0 0 0 0 0 1 0"></feColorMatrix>
<feBlend mode="normal" in2="BackgroundImageFix" result="effect1_dropShadow_10020_1525"></feBlend>
<feBlend mode="normal" in="SourceGraphic" in2="effect1_dropShadow_10020_1525" result="shape"></feBlend>
</filter>
<linearGradient id="paint0_linear_10020_1525" x1="217" y1="27" x2="217" y2="53" gradientUnits="userSpaceOnUse">
<stop stop-color="#F2835B"></stop>
<stop offset="1" stop-color="#F3D600"></stop>
</linearGradient>
<linearGradient id="paint1_linear_10020_1525" x1="25" y1="123" x2="25" y2="149" gradientUnits="userSpaceOnUse">
<stop stop-color="#F25B5D"></stop>
<stop offset="1" stop-color="#9137B4"></stop>
</linearGradient>
<linearGradient id="paint2_linear_10020_1525" x1="206.926" y1="123.462" x2="227.274" y2="146.919" gradientUnits="userSpaceOnUse">
<stop stop-color="#393841"></stop>
<stop offset="1" stop-color="#2A2630"></stop>
</linearGradient>
<linearGradient id="paint3_linear_10020_1525" x1="860.926" y1="27.4623" x2="881.274" y2="50.9188" gradientUnits="userSpaceOnUse">
<stop stop-color="#33F901"></stop>
<stop offset="1" stop-color="#0F4C00"></stop>
</linearGradient>
<linearGradient id="paint4_linear_10020_1525" x1="764.926" y1="27.4623" x2="785.274" y2="50.9188" gradientUnits="userSpaceOnUse">
<stop stop-color="#9601F9"></stop>
<stop offset="1" stop-color="#19004C"></stop>
</linearGradient>
<linearGradient id="paint5_linear_10020_1525" x1="764.926" y1="123.462" x2="785.274" y2="146.919" gradientUnits="userSpaceOnUse">
<stop stop-color="#01B9F9"></stop>
<stop offset="1" stop-color="#2D34F9"></stop>
</linearGradient>
<clipPath id="clip0_10020_1525">
<rect width="896" height="176" fill="white"></rect>
</clipPath>
<clipPath id="clip1_10020_1525">
<rect width="26.26" height="26" fill="white" transform="translate(107.367 27)"></rect>
</clipPath>
<clipPath id="clip2_10020_1525">
<rect width="26" height="26" fill="white" transform="translate(204 27)"></rect>
</clipPath>
<clipPath id="clip3_10020_1525">
<rect width="26" height="26" fill="white" transform="translate(12 123)"></rect>
</clipPath>
<clipPath id="clip4_10020_1525">
<rect width="26" height="26" fill="white" transform="translate(108 123)"></rect>
</clipPath>
<clipPath id="clip5_10020_1525">
<rect width="26" height="26" fill="white" transform="translate(204 123)"></rect>
</clipPath>
<clipPath id="clip6_10020_1525">
<rect width="26" height="26" fill="white" transform="translate(858 27)"></rect>
</clipPath>
<clipPath id="clip7_10020_1525">
<rect width="26" height="26" fill="white" transform="translate(762 27)"></rect>
</clipPath>
<clipPath id="clip8_10020_1525">
<rect width="26" height="26" fill="white" transform="translate(666 27)"></rect>
</clipPath>
<clipPath id="clip9_10020_1525">
<rect width="26.26" height="26" fill="white" transform="translate(858.367 123)"></rect>
</clipPath>
<clipPath id="clip10_10020_1525">
<rect width="26" height="26" fill="white" transform="translate(762 123)"></rect>
</clipPath>
<clipPath id="clip11_10020_1525">
<rect width="26" height="26" fill="white" transform="translate(666 123)"></rect>
</clipPath>
</defs>
</svg>