<svg width="101" height="23" viewBox="0 0 101 23" fill="none" xmlns="http://www.w3.org/2000/svg">
<path d="M13.9509 3.82469C13.2196 3.42821 12.5002 3.03755 11.7792 2.6497C11.6975 2.60577 11.6543 2.55224 11.6545 2.45562C11.6567 1.67225 11.6557 0.88887 11.6563 0.105497C11.6564 0.0709496 11.6534 0.0333991 11.6905 0.00471487C11.7648 -0.0135222 11.8221 0.0375542 11.8825 0.0698091C13.8288 1.11004 15.7747 2.15135 17.7204 3.19275C18.5625 3.64347 19.4028 4.09771 20.2479 4.54272C20.38 4.61229 20.4392 4.689 20.4384 4.84276C20.4326 5.93471 20.4321 7.02672 20.4381 8.11867C20.4391 8.29467 20.3842 8.36228 20.2046 8.36011C19.5993 8.3528 18.9939 8.35284 18.3886 8.35915C18.2223 8.36089 18.1736 8.29478 18.1753 8.13691C18.1819 7.54945 18.1731 6.96178 18.1829 6.37441C18.1857 6.20271 18.1257 6.1065 17.9758 6.02513C16.6358 5.29777 15.2995 4.56355 13.9509 3.82469Z" fill="#FC432B"></path>
<path d="M3.97256 6.57525C3.97232 7.1093 3.96777 7.62572 3.97452 8.14199C3.97664 8.30432 3.91669 8.36258 3.75643 8.36124C3.13921 8.35604 2.5219 8.35624 1.90467 8.3611C1.75459 8.36228 1.71234 8.30062 1.71282 8.15814C1.71653 7.0542 1.71577 5.95023 1.71207 4.84628C1.71167 4.72626 1.74489 4.6533 1.85703 4.59298C3.97847 3.45183 6.09719 2.30562 8.21738 1.16214C8.89624 0.796009 9.57755 0.434429 10.2582 0.0716807C10.3148 0.0415253 10.3668 -0.00292836 10.4382 0.000168759C10.4958 0.0572899 10.4851 0.131378 10.4853 0.201097C10.4876 0.919245 10.4862 1.63742 10.4922 2.35553C10.4935 2.51539 10.4398 2.6102 10.2917 2.69066C8.23238 3.80891 6.17739 4.93509 4.11983 6.05656C4.01292 6.11482 3.95766 6.18387 3.9704 6.30846C3.9788 6.39071 3.97239 6.47448 3.97256 6.57525Z" fill="#FC432B"></path>
<path d="M1.81453 13.3506C2.48333 13.3452 3.13636 13.3454 3.78932 13.3396C3.93136 13.3383 3.97495 13.4007 3.97403 13.5334C3.97071 14.0083 3.97721 14.4833 3.97191 14.9582C3.97046 15.0886 4.0073 15.176 4.11623 15.2573C5.14358 16.0244 6.15675 16.8108 7.19363 17.5646C8.04401 18.1828 8.95843 18.7033 9.87789 19.2124C10.0492 19.3073 10.22 19.4035 10.3945 19.4923C10.4848 19.5382 10.5263 19.6019 10.5262 19.7026C10.5254 20.4329 10.5284 21.1631 10.5259 21.8933C10.5254 22.0554 10.4887 22.072 10.3242 21.9956C8.75931 21.2685 7.26533 20.4229 5.87637 19.3921C4.5466 18.4053 3.19976 17.4415 1.85794 16.4709C1.76127 16.401 1.71725 16.3273 1.71781 16.2068C1.72189 15.3282 1.71964 14.4495 1.72181 13.5709C1.722 13.4926 1.69614 13.3987 1.81453 13.3506Z" fill="#FC432B"></path>
<path d="M20.4162 16.3207C20.4019 16.3999 20.3486 16.4293 20.3007 16.4642C18.7214 17.6113 17.1518 18.772 15.5597 19.9012C14.4835 20.6645 13.3222 21.289 12.1306 21.8553C12.0288 21.9037 11.9276 21.9533 11.8245 21.9989C11.6585 22.0723 11.6245 22.0529 11.6231 21.8734C11.6199 21.4698 11.6212 21.0662 11.6212 20.6626C11.6211 20.3599 11.6276 20.057 11.6199 19.7546C11.6164 19.6178 11.6653 19.5392 11.7866 19.4749C12.7626 18.9582 13.7156 18.4006 14.6342 17.7878C15.3747 17.2938 16.0587 16.7211 16.774 16.1916C17.1841 15.888 17.5871 15.5746 18.0013 15.2768C18.1377 15.1787 18.1864 15.0704 18.1825 14.9047C18.1718 14.448 18.1831 13.9907 18.1761 13.5338C18.1737 13.3795 18.2257 13.3274 18.3823 13.3292C18.9994 13.3362 19.6168 13.3343 20.234 13.3288C20.3725 13.3276 20.4147 13.3693 20.414 13.5132C20.4096 14.4446 20.4157 15.376 20.4162 16.3207Z" fill="#FC432B"></path>
<path d="M9.39112 9.1461C10.5683 8.19691 12.101 8.37589 13.0073 9.35591C13.7259 10.133 13.9819 11.051 13.6045 12.0689C13.227 13.0872 12.475 13.7035 11.3974 13.8504C9.94699 14.048 8.58591 12.94 8.44258 11.4838C8.35023 10.5455 8.69436 9.78001 9.39112 9.1461ZM12.6023 9.82019C12.5526 9.78842 12.5053 9.7516 12.4526 9.72573C12.1924 9.59787 11.9413 9.63043 11.7203 9.80579C11.522 9.96311 11.4355 10.183 11.4779 10.4363C11.5309 10.7529 11.7525 10.9701 12.0474 11.0135C12.3455 11.0574 12.6437 10.899 12.7807 10.624C12.9207 10.3428 12.8708 10.094 12.6023 9.82019Z" fill="#FC432B"></path>
<path d="M6.4815 15.1402C6.23018 14.853 6.01499 14.5555 5.83169 14.235C5.78858 14.1596 5.75727 14.0915 5.83121 14.0104C6.375 13.4142 6.91592 12.8154 7.45861 12.2182C7.4775 12.1975 7.50551 12.1849 7.52902 12.1687C7.61183 12.2059 7.61531 12.2847 7.63726 12.3476C7.95854 13.2677 8.53838 13.9672 9.40357 14.4236C9.49559 14.4721 9.56551 14.532 9.61378 14.629C10.0077 15.42 10.4066 16.2086 10.8026 16.9986C10.8364 17.066 10.8851 17.13 10.8727 17.2529C10.0247 17.2472 9.2321 17.0262 8.47738 16.6562C7.71812 16.2839 7.05132 15.7851 6.4815 15.1402Z" fill="#FC432B"></path>
<path d="M12.5149 17.0895C12.2619 17.1372 12.0229 17.1804 11.7843 17.2259C11.6887 17.2441 11.6267 17.21 11.5832 17.1228C11.2207 16.3954 10.8564 15.669 10.4929 14.942C10.4743 14.9048 10.4562 14.8666 10.4818 14.8182C10.5951 14.7604 10.7103 14.8253 10.8253 14.8305C11.9985 14.8831 12.9912 14.4933 13.784 13.6221C13.8923 13.503 13.9792 13.4919 14.12 13.5552C14.7367 13.8324 15.3582 14.099 15.9779 14.3695C16.193 14.4634 16.1958 14.474 16.0537 14.669C15.1639 15.8903 13.9817 16.6853 12.5149 17.0895Z" fill="#FC432B"></path>
<path d="M6.46561 7.2133C6.64274 6.90791 6.89625 6.68421 7.15447 6.46713C8.12046 5.65509 9.22953 5.17275 10.4862 5.03714C10.8276 5.0003 10.8368 5.0095 10.9887 5.31655C11.3462 6.03934 11.7054 6.76127 12.0636 7.48376C12.0892 7.53553 12.1253 7.58468 12.1184 7.66954C11.917 7.6385 11.7225 7.60417 11.5269 7.57914C10.5691 7.45656 9.70385 7.69657 8.92988 8.26409C8.79718 8.3614 8.69743 8.37971 8.54777 8.3029C7.91999 7.9807 7.2853 7.67195 6.65371 7.35716C6.58561 7.32321 6.51008 7.2976 6.46561 7.2133Z" fill="#FC432B"></path>
<path d="M16.8123 9.05462C17.3766 10.6399 17.3157 12.1845 16.6164 13.7032C16.5545 13.8377 16.4965 13.8796 16.3488 13.8121C15.7284 13.5283 15.1039 13.2534 14.478 12.9818C14.3456 12.9243 14.3165 12.8653 14.3796 12.7272C14.6615 12.1095 14.766 11.4599 14.6883 10.7842C14.6719 10.6419 14.6997 10.5187 14.7717 10.3944C15.2298 9.60378 15.683 8.8103 16.1384 8.01809C16.1557 7.98804 16.1792 7.96154 16.2194 7.90657C16.4909 8.25983 16.646 8.65247 16.8123 9.05462Z" fill="#FC432B"></path>
<path d="M7.88163 9.52476C7.62897 10.0382 7.48443 10.5662 7.47068 11.1266C7.4685 11.2156 7.44133 11.2841 7.37889 11.348C6.76884 11.9715 6.20267 12.635 5.61663 13.2805C5.57355 13.3279 5.53634 13.3842 5.46644 13.4037C5.38963 13.3828 5.38343 13.3094 5.36268 13.2518C4.72299 11.4763 4.89178 9.76871 5.80439 8.12803C5.99199 7.79076 6.0041 7.79286 6.35676 7.96445C6.93814 8.24731 7.51628 8.53679 8.09741 8.82016C8.21616 8.87807 8.26213 8.93024 8.16551 9.05816C8.05897 9.19923 7.97925 9.36055 7.88163 9.52476Z" fill="#FC432B"></path>
<path d="M11.9084 5.72145C11.8211 5.54471 11.736 5.38161 11.6585 5.21496C11.5893 5.06621 11.6253 5.02085 11.7909 5.04081C12.9072 5.17529 13.9072 5.59541 14.7964 6.27853C15.131 6.53555 15.4322 6.82954 15.7006 7.15712C15.7809 7.25518 15.7875 7.33818 15.7257 7.44571C15.3241 8.14507 14.926 8.84649 14.5263 9.54699C14.5061 9.58234 14.4849 9.61868 14.4408 9.63257C14.3588 9.59438 14.3475 9.51051 14.3139 9.44542C14.0366 8.90816 13.6612 8.45764 13.1539 8.12276C13.0877 8.0791 13.0381 8.02669 13.0026 7.95391C12.6411 7.21307 12.2771 6.47348 11.9084 5.72145Z" fill="#FC432B"></path>
<path d="M18.1772 10.343C18.1773 9.96386 18.182 9.6016 18.1759 9.23952C18.1733 9.08919 18.2239 9.02711 18.3811 9.02761C19.5923 9.03146 20.8036 9.02874 22.0149 9.03008C22.1878 9.03027 22.2037 9.05876 22.135 9.22022C21.9748 9.59703 21.8083 9.97127 21.6545 10.3507C21.6059 10.4705 21.536 10.5067 21.4126 10.5063C20.4032 10.5028 19.3938 10.5046 18.3844 10.5051C18.2807 10.5052 18.1719 10.5146 18.1772 10.343Z" fill="#FC432B"></path>
<path d="M1.58046 10.5068C1.28399 10.5069 1.00521 10.5025 0.726717 10.5094C0.60661 10.5123 0.545526 10.4642 0.501089 10.3557C0.352909 9.99391 0.196386 9.63554 0.0428056 9.27596C-0.0357421 9.09206 -0.0158421 9.05994 0.18392 9.05378C1.37526 9.01703 2.56694 9.04429 3.7584 9.03328C3.92362 9.03175 3.97678 9.09601 3.97365 9.25397C3.96673 9.60364 3.96655 9.95365 3.97413 10.3033C3.97746 10.4567 3.92449 10.5103 3.76825 10.5089C3.04498 10.5027 2.32161 10.5065 1.58046 10.5068Z" fill="#FC432B"></path>
<path d="M0.857891 11.5691C0.816087 11.4518 0.754359 11.355 0.745789 11.2466C0.795275 11.1789 0.859545 11.1978 0.915604 11.1978C1.86545 11.1963 2.81531 11.1991 3.76513 11.1935C3.91873 11.1925 3.97775 11.2405 3.97436 11.3967C3.96664 11.7527 3.96788 12.1091 3.97295 12.4652C3.97496 12.606 3.92756 12.6714 3.77863 12.6708C3.0069 12.6676 2.23514 12.6689 1.4634 12.6714C1.3595 12.6717 1.30175 12.6294 1.26269 12.5334C1.13299 12.2147 0.996541 11.8988 0.857891 11.5691Z" fill="#FC432B"></path>
<path d="M19.2164 12.6692C18.926 12.6685 18.6532 12.6629 18.3808 12.6692C18.2264 12.6728 18.1715 12.6103 18.1749 12.458C18.1827 12.1026 18.1841 11.7468 18.1771 11.3913C18.174 11.2347 18.2331 11.1884 18.3863 11.1895C19.2515 11.1953 20.1168 11.1902 20.982 11.1942C21.1158 11.1949 21.2525 11.1464 21.3818 11.2034C21.4239 11.2702 21.3836 11.323 21.3622 11.3753C21.2028 11.7645 21.0383 12.1516 20.8827 12.5422C20.8377 12.6553 20.7576 12.6668 20.6566 12.6666C20.1824 12.6659 19.7083 12.668 19.2164 12.6692Z" fill="#FC432B"></path>
<path d="M33.132 12.9469V9.58052C33.132 9.34905 33.0993 9.15028 33.0339 8.98423C32.9685 8.81817 32.8653 8.68985 32.7244 8.59928C32.5835 8.50367 32.3948 8.45587 32.1583 8.45587C31.9671 8.45587 31.8036 8.48857 31.6677 8.55399C31.5318 8.61941 31.4287 8.71753 31.3582 8.84836C31.2878 8.97919 31.2526 9.14525 31.2526 9.34653H28.7089C28.7089 8.96913 28.7919 8.61941 28.958 8.29736C29.1291 7.97028 29.3706 7.68597 29.6826 7.44443C29.9996 7.20289 30.377 7.01671 30.8148 6.88588C31.2576 6.75001 31.7507 6.68208 32.2942 6.68208C32.9433 6.68208 33.522 6.79027 34.0302 7.00665C34.5435 7.22302 34.9486 7.54759 35.2455 7.98034C35.5424 8.40806 35.6908 8.94649 35.6908 9.59562V12.9394C35.6908 13.4728 35.721 13.8779 35.7814 14.1546C35.8418 14.4264 35.9273 14.6654 36.038 14.8717V15H33.4868C33.366 14.7484 33.2754 14.4414 33.2151 14.0791C33.1597 13.7118 33.132 13.3344 33.132 12.9469ZM33.4415 10.0108L33.4566 11.3694H32.3319C32.0954 11.3694 31.8941 11.4021 31.7281 11.4675C31.5671 11.5329 31.4362 11.6235 31.3356 11.7393C31.24 11.85 31.1695 11.9758 31.1243 12.1167C31.084 12.2576 31.0639 12.406 31.0639 12.562C31.0639 12.7129 31.0991 12.8488 31.1695 12.9696C31.245 13.0853 31.3457 13.1759 31.4715 13.2413C31.5973 13.3067 31.7382 13.3394 31.8941 13.3394C32.1759 13.3394 32.415 13.2866 32.6112 13.1809C32.8125 13.0702 32.966 12.9369 33.0716 12.7809C33.1773 12.6249 33.2301 12.479 33.2301 12.3431L33.7887 13.3847C33.6881 13.586 33.5723 13.7898 33.4415 13.9961C33.3157 14.2024 33.1572 14.3936 32.966 14.5698C32.7798 14.7409 32.5508 14.8817 32.2791 14.9925C32.0074 15.0981 31.6778 15.151 31.2903 15.151C30.7871 15.151 30.3242 15.0478 29.9015 14.8415C29.4838 14.6352 29.1492 14.3484 28.8976 13.981C28.646 13.6086 28.5202 13.1809 28.5202 12.6979C28.5202 12.2752 28.5957 11.8978 28.7466 11.5657C28.9026 11.2335 29.1366 10.9517 29.4486 10.7203C29.7606 10.4888 30.1581 10.3127 30.6412 10.1919C31.1243 10.0711 31.6929 10.0108 32.347 10.0108H33.4415ZM39.7894 6.83304V15H37.2381V6.83304H39.7894ZM37.0872 4.72714C37.0872 4.36484 37.218 4.06795 37.4797 3.83648C37.7413 3.605 38.081 3.48927 38.4987 3.48927C38.9163 3.48927 39.256 3.605 39.5177 3.83648C39.7793 4.06795 39.9101 4.36484 39.9101 4.72714C39.9101 5.08945 39.7793 5.38634 39.5177 5.61781C39.256 5.84928 38.9163 5.96502 38.4987 5.96502C38.081 5.96502 37.7413 5.84928 37.4797 5.61781C37.218 5.38634 37.0872 5.08945 37.0872 4.72714Z" fill="white"></path>
<path d="M44.8088 13.1885C45.0453 13.1885 45.2466 13.1457 45.4127 13.0602C45.5837 12.9696 45.7121 12.8438 45.7976 12.6828C45.8882 12.5167 45.931 12.3179 45.9259 12.0865H48.3186C48.3237 12.7004 48.1727 13.2388 47.8658 13.7017C47.5638 14.1597 47.1512 14.5169 46.6279 14.7736C46.1096 15.0252 45.5234 15.151 44.8692 15.151C44.2301 15.151 43.6716 15.0478 43.1935 14.8415C42.7155 14.6301 42.3155 14.3383 41.9934 13.9659C41.6764 13.5885 41.4374 13.1482 41.2763 12.645C41.1203 12.1418 41.0424 11.5958 41.0424 11.0071V10.8335C41.0424 10.2447 41.1203 9.69877 41.2763 9.19557C41.4374 8.68734 41.6764 8.24704 41.9934 7.87467C42.3155 7.49727 42.713 7.20541 43.186 6.9991C43.664 6.78775 44.2201 6.68208 44.8541 6.68208C45.5334 6.68208 46.1322 6.8104 46.6505 7.06703C47.1739 7.32366 47.584 7.69603 47.8809 8.18414C48.1777 8.67224 48.3237 9.2635 48.3186 9.95792H45.9259C45.931 9.71135 45.8932 9.48994 45.8127 9.2937C45.7322 9.09745 45.6064 8.94145 45.4353 8.82572C45.2692 8.70495 45.0554 8.64457 44.7937 8.64457C44.5321 8.64457 44.3207 8.70243 44.1597 8.81817C43.9987 8.93391 43.8754 9.09493 43.7898 9.30124C43.7093 9.50252 43.654 9.734 43.6238 9.99566C43.5986 10.2573 43.586 10.5366 43.586 10.8335V11.0071C43.586 11.309 43.5986 11.5933 43.6238 11.86C43.654 12.1217 43.7118 12.3532 43.7974 12.5544C43.8829 12.7507 44.0062 12.9067 44.1672 13.0224C44.3283 13.1331 44.5421 13.1885 44.8088 13.1885ZM53.6475 12.9469V9.58052C53.6475 9.34905 53.6148 9.15028 53.5494 8.98423C53.484 8.81817 53.3809 8.68985 53.24 8.59928C53.0991 8.50367 52.9104 8.45587 52.6739 8.45587C52.4826 8.45587 52.3191 8.48857 52.1832 8.55399C52.0474 8.61941 51.9442 8.71753 51.8738 8.84836C51.8033 8.97919 51.7681 9.14525 51.7681 9.34653H49.2244C49.2244 8.96913 49.3074 8.61941 49.4735 8.29736C49.6446 7.97028 49.8861 7.68597 50.1981 7.44443C50.5151 7.20289 50.8925 7.01671 51.3303 6.88588C51.7731 6.75001 52.2663 6.68208 52.8097 6.68208C53.4588 6.68208 54.0375 6.79027 54.5458 7.00665C55.059 7.22302 55.4641 7.54759 55.761 7.98034C56.0579 8.40806 56.2063 8.94649 56.2063 9.59562V12.9394C56.2063 13.4728 56.2365 13.8779 56.2969 14.1546C56.3573 14.4264 56.4428 14.6654 56.5535 14.8717V15H54.0023C53.8815 14.7484 53.791 14.4414 53.7306 14.0791C53.6752 13.7118 53.6475 13.3344 53.6475 12.9469ZM53.957 10.0108L53.9721 11.3694H52.8475C52.611 11.3694 52.4097 11.4021 52.2436 11.4675C52.0826 11.5329 51.9518 11.6235 51.8511 11.7393C51.7555 11.85 51.6851 11.9758 51.6398 12.1167C51.5995 12.2576 51.5794 12.406 51.5794 12.562C51.5794 12.7129 51.6146 12.8488 51.6851 12.9696C51.7605 13.0853 51.8612 13.1759 51.987 13.2413C52.1128 13.3067 52.2537 13.3394 52.4097 13.3394C52.6915 13.3394 52.9305 13.2866 53.1267 13.1809C53.328 13.0702 53.4815 12.9369 53.5872 12.7809C53.6928 12.6249 53.7457 12.479 53.7457 12.3431L54.3042 13.3847C54.2036 13.586 54.0878 13.7898 53.957 13.9961C53.8312 14.2024 53.6727 14.3936 53.4815 14.5698C53.2953 14.7409 53.0664 14.8817 52.7946 14.9925C52.5229 15.0981 52.1933 15.151 51.8058 15.151C51.3026 15.151 50.8397 15.0478 50.417 14.8415C49.9993 14.6352 49.6647 14.3484 49.4131 13.981C49.1615 13.6086 49.0357 13.1809 49.0357 12.6979C49.0357 12.2752 49.1112 11.8978 49.2621 11.5657C49.4181 11.2335 49.6521 10.9517 49.9641 10.7203C50.2761 10.4888 50.6736 10.3127 51.1567 10.1919C51.6398 10.0711 52.2084 10.0108 52.8626 10.0108H53.957ZM60.1841 8.56154V15H57.6405V6.83304H60.0256L60.1841 8.56154ZM59.8747 10.6372L59.2935 10.6523C59.2935 10.0787 59.3614 9.55033 59.4973 9.06726C59.6331 8.58418 59.8344 8.16401 60.1011 7.80674C60.3678 7.44946 60.6949 7.1727 61.0823 6.97645C61.4748 6.7802 61.9277 6.68208 62.441 6.68208C62.7983 6.68208 63.1228 6.73743 63.4147 6.84814C63.7065 6.95381 63.9581 7.12238 64.1695 7.35385C64.3808 7.58029 64.5419 7.87718 64.6526 8.24452C64.7683 8.60683 64.8262 9.04209 64.8262 9.55033V15H62.2825V9.87489C62.2825 9.52768 62.2422 9.26602 62.1617 9.0899C62.0862 8.91378 61.9755 8.79553 61.8296 8.73514C61.6837 8.67476 61.505 8.64457 61.2937 8.64457C61.0723 8.64457 60.8735 8.69489 60.6974 8.79553C60.5213 8.89617 60.3703 9.03706 60.2445 9.21822C60.1238 9.39434 60.0307 9.60316 59.9652 9.8447C59.9049 10.0862 59.8747 10.3504 59.8747 10.6372ZM64.5393 10.6372L63.8298 10.6523C63.8298 10.0787 63.8927 9.55033 64.0185 9.06726C64.1494 8.58418 64.3431 8.16401 64.5997 7.80674C64.8614 7.44946 65.186 7.1727 65.5734 6.97645C65.9609 6.7802 66.4113 6.68208 66.9245 6.68208C67.2969 6.68208 67.6391 6.73743 67.951 6.84814C68.263 6.95884 68.5322 7.13748 68.7587 7.38405C68.9851 7.63061 69.1612 7.9577 69.287 8.36529C69.4128 8.76785 69.4757 9.26602 69.4757 9.8598V15H66.9245V9.8598C66.9245 9.52265 66.8843 9.26854 66.8037 9.09745C66.7283 8.92133 66.6176 8.80307 66.4716 8.74269C66.3257 8.67727 66.1521 8.64457 65.9508 8.64457C65.7093 8.64457 65.5005 8.69489 65.3243 8.79553C65.1482 8.89617 64.9998 9.03706 64.879 9.21822C64.7633 9.39434 64.6777 9.60316 64.6224 9.8447C64.567 10.0862 64.5393 10.3504 64.5393 10.6372ZM73.6196 3.40624V15H71.0684V3.40624H73.6196ZM79.4316 12.9469V9.58052C79.4316 9.34905 79.3989 9.15028 79.3335 8.98423C79.268 8.81817 79.1649 8.68985 79.024 8.59928C78.8831 8.50367 78.6944 8.45587 78.4579 8.45587C78.2667 8.45587 78.1031 8.48857 77.9673 8.55399C77.8314 8.61941 77.7283 8.71753 77.6578 8.84836C77.5874 8.97919 77.5521 9.14525 77.5521 9.34653H75.0084C75.0084 8.96913 75.0915 8.61941 75.2575 8.29736C75.4286 7.97028 75.6702 7.68597 75.9821 7.44443C76.2992 7.20289 76.6766 7.01671 77.1143 6.88588C77.5572 6.75001 78.0503 6.68208 78.5938 6.68208C79.2429 6.68208 79.8216 6.79027 80.3298 7.00665C80.8431 7.22302 81.2481 7.54759 81.545 7.98034C81.8419 8.40806 81.9904 8.94649 81.9904 9.59562V12.9394C81.9904 13.4728 82.0206 13.8779 82.0809 14.1546C82.1413 14.4264 82.2269 14.6654 82.3376 14.8717V15H79.7863C79.6656 14.7484 79.575 14.4414 79.5146 14.0791C79.4593 13.7118 79.4316 13.3344 79.4316 12.9469ZM79.7411 10.0108L79.7562 11.3694H78.6315C78.395 11.3694 78.1937 11.4021 78.0277 11.4675C77.8666 11.5329 77.7358 11.6235 77.6352 11.7393C77.5396 11.85 77.4691 11.9758 77.4238 12.1167C77.3836 12.2576 77.3634 12.406 77.3634 12.562C77.3634 12.7129 77.3987 12.8488 77.4691 12.9696C77.5446 13.0853 77.6452 13.1759 77.771 13.2413C77.8968 13.3067 78.0377 13.3394 78.1937 13.3394C78.4755 13.3394 78.7145 13.2866 78.9108 13.1809C79.1121 13.0702 79.2655 12.9369 79.3712 12.7809C79.4769 12.6249 79.5297 12.479 79.5297 12.3431L80.0883 13.3847C79.9876 13.586 79.8719 13.7898 79.7411 13.9961C79.6153 14.2024 79.4567 14.3936 79.2655 14.5698C79.0793 14.7409 78.8504 14.8817 78.5787 14.9925C78.3069 15.0981 77.9773 15.151 77.5899 15.151C77.0867 15.151 76.6237 15.0478 76.201 14.8415C75.7834 14.6352 75.4487 14.3484 75.1971 13.981C74.9455 13.6086 74.8197 13.1809 74.8197 12.6979C74.8197 12.2752 74.8952 11.8978 75.0462 11.5657C75.2022 11.2335 75.4362 10.9517 75.7482 10.7203C76.0601 10.4888 76.4577 10.3127 76.9407 10.1919C77.4238 10.0711 77.9924 10.0108 78.6466 10.0108H79.7411ZM83.4245 3.40624H85.9682V12.9922L85.704 15H83.4245V3.40624ZM90.9801 10.8259V10.9845C90.9801 11.6034 90.9172 12.167 90.7914 12.6752C90.6656 13.1834 90.4718 13.6237 90.2102 13.9961C89.9485 14.3635 89.6189 14.6478 89.2214 14.849C88.8238 15.0503 88.3534 15.151 87.8099 15.151C87.3168 15.151 86.8941 15.0453 86.5418 14.8339C86.1896 14.6176 85.8952 14.3207 85.6587 13.9433C85.4222 13.5608 85.231 13.1205 85.0851 12.6224C84.9391 12.1192 84.8234 11.5807 84.7378 11.0071V10.8184C84.8234 10.2498 84.9391 9.71638 85.0851 9.21822C85.231 8.71501 85.4222 8.27471 85.6587 7.89731C85.8952 7.51488 86.1871 7.21799 86.5343 7.00665C86.8865 6.79027 87.3067 6.68208 87.7948 6.68208C88.3433 6.68208 88.8163 6.78524 89.2138 6.99155C89.6164 7.19786 89.9485 7.4872 90.2102 7.85957C90.4718 8.23194 90.6656 8.66973 90.7914 9.17293C90.9172 9.67613 90.9801 10.2271 90.9801 10.8259ZM88.4364 10.9845V10.8259C88.4364 10.5291 88.4188 10.2498 88.3835 9.98811C88.3483 9.72645 88.2854 9.49498 88.1948 9.2937C88.1043 9.09242 87.976 8.93391 87.8099 8.81817C87.6438 8.70243 87.4275 8.64457 87.1608 8.64457C86.889 8.64457 86.6601 8.68985 86.4739 8.78043C86.2927 8.87101 86.1468 9.00184 86.0361 9.17293C85.9304 9.33898 85.855 9.5453 85.8097 9.79187C85.7644 10.0334 85.7443 10.3076 85.7493 10.6146V11.2109C85.7392 11.6286 85.777 11.9858 85.8625 12.2827C85.948 12.5796 86.0965 12.806 86.3078 12.962C86.5192 13.118 86.8085 13.196 87.1759 13.196C87.4476 13.196 87.6665 13.1432 87.8325 13.0375C88.0036 12.9318 88.1319 12.7809 88.2175 12.5846C88.303 12.3884 88.3609 12.1544 88.3911 11.8827C88.4213 11.6109 88.4364 11.3115 88.4364 10.9845ZM96.392 12.7054C96.392 12.5645 96.3442 12.4437 96.2486 12.3431C96.158 12.2374 95.997 12.1418 95.7655 12.0563C95.534 11.9657 95.2095 11.8751 94.7918 11.7845C94.3943 11.699 94.0194 11.5858 93.6672 11.4449C93.3199 11.304 93.0155 11.1329 92.7538 10.9316C92.4922 10.7303 92.2859 10.4913 92.1349 10.2146C91.989 9.93779 91.916 9.62078 91.916 9.2635C91.916 8.91629 91.989 8.58921 92.1349 8.28226C92.2859 7.97028 92.5048 7.69603 92.7916 7.45953C93.0834 7.21799 93.4382 7.02929 93.8559 6.89342C94.2735 6.75253 94.749 6.68208 95.2824 6.68208C96.0171 6.68208 96.6511 6.7953 97.1845 7.02174C97.7179 7.24315 98.128 7.55513 98.4149 7.9577C98.7067 8.35522 98.8526 8.81565 98.8526 9.33898H96.309C96.309 9.13267 96.2737 8.95655 96.2033 8.81062C96.1379 8.66469 96.0297 8.55399 95.8787 8.47851C95.7278 8.398 95.5265 8.35774 95.2749 8.35774C95.0988 8.35774 94.9377 8.39045 94.7918 8.45587C94.6509 8.52128 94.5377 8.61186 94.4522 8.72759C94.3666 8.84333 94.3238 8.97919 94.3238 9.13519C94.3238 9.24589 94.349 9.34653 94.3993 9.43711C94.4547 9.52265 94.5377 9.60316 94.6484 9.67864C94.7591 9.74909 94.9 9.81451 95.0711 9.87489C95.2422 9.93025 95.4485 9.98057 95.69 10.0259C96.2385 10.1265 96.7518 10.2699 97.2298 10.4561C97.7079 10.6423 98.0953 10.9065 98.3922 11.2486C98.6941 11.5908 98.8451 12.0512 98.8451 12.6299C98.8451 12.9922 98.7621 13.3269 98.596 13.6338C98.43 13.9357 98.1909 14.2024 97.879 14.4339C97.567 14.6603 97.1921 14.8365 96.7543 14.9623C96.3165 15.0881 95.8234 15.151 95.2749 15.151C94.4949 15.151 93.8357 15.0126 93.2973 14.7358C92.7589 14.454 92.3513 14.1018 92.0745 13.6791C91.8028 13.2514 91.6669 12.8186 91.6669 12.3808H94.037C94.0471 12.6324 94.1075 12.8387 94.2182 12.9998C94.3339 13.1608 94.4874 13.2791 94.6786 13.3545C94.8698 13.43 95.0912 13.4678 95.3428 13.4678C95.5743 13.4678 95.7655 13.435 95.9165 13.3696C96.0725 13.3042 96.1907 13.2162 96.2712 13.1054C96.3517 12.9897 96.392 12.8564 96.392 12.7054Z" fill="#FC432B"></path>
</svg>